HIERARCHY
ROOT Hips
{
  OFFSET 0.0273292 -0.436096 0.279869
  CHANNELS 6 Xposition Yposition Zposition Zrotation Xrotation Yrotation
  JOINT LHipJoint
  {
    OFFSET 0 0 0
    CHANNELS 6 Xposition Yposition Zposition Zrotation Xrotation Yrotation
    JOINT LeftUpLeg
    {
      OFFSET 1.36306 -1.79463 0
      CHANNELS 6 Xposition Yposition Zposition Zrotation Xrotation Yrotation
      JOINT LeftLeg
      {
        OFFSET 2.44807 -6.72613 0.000295034
        CHANNELS 6 Xposition Yposition Zposition Zrotation Xrotation Yrotation
        JOINT LeftFoot
        {
          OFFSET 2.5622 -7.03959 3.59965e-05
          CHANNELS 6 Xposition Yposition Zposition Zrotation Xrotation Yrotation
          JOINT LeftToeBase
          {
            OFFSET 0.15764 -0.43311 2.32255
            CHANNELS 6 Xposition Yposition Zposition Zrotation Xrotation Yrotation
            End Site
            {
              OFFSET 0 0 0
            }
          }
        }
      }
    }
  }
  JOINT RHipJoint
  {
    OFFSET 0 0 0
    CHANNELS 6 Xposition Yposition Zposition Zrotation Xrotation Yrotation
    JOINT RightUpLeg
    {
      OFFSET -1.30552 -1.79463 0
      CHANNELS 6 Xposition Yposition Zposition Zrotation Xrotation Yrotation
      JOINT RightLeg
      {
        OFFSET -2.54234 -6.98562 -0.000396375
        CHANNELS 6 Xposition Yposition Zposition Zrotation Xrotation Yrotation
        JOINT RightFoot
        {
          OFFSET -2.56826 -7.05623 -4.47982e-05
          CHANNELS 6 Xposition Yposition Zposition Zrotation Xrotation Yrotation
          JOINT RightToeBase
          {
            OFFSET -0.16473 -0.45259 2.36315
            CHANNELS 6 Xposition Yposition Zposition Zrotation Xrotation Yrotation
            End Site
            {
              OFFSET 0 0 0
            }
          }
        }
      }
    }
  }
  JOINT LowerBack
  {
    OFFSET 0 0 0
    CHANNELS 6 Xposition Yposition Zposition Zrotation Xrotation Yrotation
    JOINT Spine
    {
      OFFSET 0.0282699 2.03559 0
      CHANNELS 6 Xposition Yposition Zposition Zrotation Xrotation Yrotation
      JOINT Spine1
      {
        OFFSET 0.05672 2.04885 -0.04275
        CHANNELS 6 Xposition Yposition Zposition Zrotation Xrotation Yrotation
        JOINT Neck
        {
          OFFSET 0 0 0
          CHANNELS 6 Xposition Yposition Zposition Zrotation Xrotation Yrotation
          JOINT Neck1
          {
            OFFSET -0.05417 1.74624 0.17202
            CHANNELS 6 Xposition Yposition Zposition Zrotation Xrotation Yrotation
            JOINT Head
            {
              OFFSET 0.10407 1.76136 -0.12397
              CHANNELS 6 Xposition Yposition Zposition Zrotation Xrotation Yrotation
              End Site
              {
                OFFSET 0 0 0
              }
            }
          }
        }
        JOINT LeftShoulder
        {
          OFFSET 0 0 0
          CHANNELS 6 Xposition Yposition Zposition Zrotation Xrotation Yrotation
          JOINT LeftArm
          {
            OFFSET 3.36241 1.20089 -0.311211
            CHANNELS 6 Xposition Yposition Zposition Zrotation Xrotation Yrotation
            JOINT LeftForeArm
            {
              OFFSET 4.983 0.000197398 0.000166057
              CHANNELS 6 Xposition Yposition Zposition Zrotation Xrotation Yrotation
              JOINT LeftHand
              {
                OFFSET 3.48356 0 1.87849e-05
                CHANNELS 6 Xposition Yposition Zposition Zrotation Xrotation Yrotation
                JOINT LeftFingerBase
                {
                  OFFSET 0 0 0
                  CHANNELS 6 Xposition Yposition Zposition Zrotation Xrotation Yrotation
                  JOINT LeftHandIndex1
                  {
                    OFFSET 0.71526 0 0
                    CHANNELS 6 Xposition Yposition Zposition Zrotation Xrotation Yrotation
                    End Site
                    {
                      OFFSET 0 0 0
                    }
                  }
                }
                JOINT LThumb
                {
                  OFFSET 0 0 0
                  CHANNELS 6 Xposition Yposition Zposition Zrotation Xrotation Yrotation
                  End Site
                  {
                    OFFSET 0 0 0
                  }
                }
              }
            }
          }
        }
        JOINT RightShoulder
        {
          OFFSET 0 0 0
          CHANNELS 6 Xposition Yposition Zposition Zrotation Xrotation Yrotation
          JOINT RightArm
          {
            OFFSET -3.1366 1.37405 -0.404651
            CHANNELS 6 Xposition Yposition Zposition Zrotation Xrotation Yrotation
            JOINT RightForeArm
            {
              OFFSET -5.2419 -5.8808e-05 -0.000165864
              CHANNELS 6 Xposition Yposition Zposition Zrotation Xrotation Yrotation
              JOINT RightHand
              {
                OFFSET -3.44417 0 -2.00002e-05
                CHANNELS 6 Xposition Yposition Zposition Zrotation Xrotation Yrotation
                JOINT RightFingerBase
                {
                  OFFSET 0 0 0
                  CHANNELS 6 Xposition Yposition Zposition Zrotation Xrotation Yrotation
                  JOINT RightHandIndex1
                  {
                    OFFSET -0.62253 0 0
                    CHANNELS 6 Xposition Yposition Zposition Zrotation Xrotation Yrotation
                    End Site
                    {
                      OFFSET 0 0 0
                    }
                  }
                }
                JOINT RThumb
                {
                  OFFSET 0 0 0
                  CHANNELS 6 Xposition Yposition Zposition Zrotation Xrotation Yrotation
                  End Site
                  {
                    OFFSET 0 0 0
                  }
                }
              }
            }
          }
        }
      }
    }
  }
}
MOTION
Frames:	7
Frame Time:	0.00833333
-0.0274847 0.452048 -0.287057 -0.156422 -4.51425 -1.9866 0 0 0 4.96962e-17 0 -0 1.36306 -1.79463 4.2992e-10 -75.6995 -74.7895 -79.4266 2.44811 -6.72613 -0.00024571 -103.249 65.8707 123.702 2.5622 -7.03959 5.3559e-05 -8.17595 -30.3944 -15.198 0.15764 -0.43311 2.32255 -5.96354e-15 3.18055e-15 1.59028e-15 0 0 0 4.96962e-17 0 -0 -1.30552 -1.79463 -1.11358e-08 85.559 -71.2127 89.7781 -2.54251 -6.98556 -0.000321313 106.937 64.6792 -127.682 -2.56826 -7.05623 3.53778e-05 7.95152 -29.9052 14.948 -0.16473 -0.45259 2.36315 3.97569e-15 3.18055e-15 -1.59028e-15 0 0 0 4.96962e-17 0 -0 0.0282701 2.03559 4.03749e-09 7.45443e-17 0 -0 0.05672 2.04885 -0.04275 4.96962e-17 0 -0 0 0 0 4.96962e-17 0 -0 -0.05417 1.74624 0.17202 -0.480271 13.6262 2.03781 0.10407 1.76136 -0.12397 -3.49426e-18 1.59028e-15 7.76503e-18 0 0 0 4.96962e-17 0 -0 3.36241 1.20089 -0.31121 -70.1022 -0.202189 -5.77118 4.983 0.000260727 0.000172215 0.00290394 6.12371e-05 -0.0022961 3.48356 1.04107e-06 -6.27401e-06 7.20905e-15 6.70898e-16 0.000125894 0 0 0 3.95706e-15 5.2181e-16 -0 0.71526 0 1.11022e-16 7.67185e-16 3.47873e-16 -0 0 0 0 3.95706e-15 5.2181e-16 -0 0 0 0 4.96962e-17 0 -0 -3.1366 1.37404 -0.40465 70.1021 -0.202198 5.77125 -5.2419 0.000271698 0.000176292 -0.00288587 6.18806e-05 0.00222856 -3.44417 -1.09964e-06 -6.1885e-06 -5.1684e-15 3.97569e-16 -0.000125328 0 0 0 4.37326e-15 0 -1.59028e-15 -0.62253 -8.88178e-16 0 1.19271e-15 7.95139e-16 -1.59028e-15 0 0 0 4.37326e-15 0 -1.59028e-15 
-0.027895 0.461143 -0.274541 -0.105648 -4.51572 -1.34162 0 0 0 -1.2424e-17 -1.59028e-15 -1.98785e-16 1.36306 -1.79463 4.2992e-10 -70.4291 -73.6787 -73.9207 2.44811 -6.72613 -0.00024571 -104.069 65.6278 124.602 2.5622 -7.03959 5.3559e-05 -8.55298 -31.5692 -15.8731 0.15764 -0.43311 2.32255 1.59028e-15 0 7.95139e-16 0 0 0 -1.2424e-17 -1.59028e-15 -1.98785e-16 -1.30552 -1.79463 -1.11358e-08 79.2582 -71.6016 83.198 -2.54251 -6.98556 -0.000321313 106.927 64.6849 -127.69 -2.56826 -7.05623 3.53778e-05 8.3192 -31.093 15.6085 -0.16473 -0.45259 2.36315 -1.19271e-15 9.54166e-15 -2.38542e-15 0 0 0 -1.2424e-17 -1.59028e-15 -1.98785e-16 0.0282701 2.03559 4.03749e-09 -1.2424e-17 -7.95139e-16 -0 0.05672 2.04885 -0.04275 -1.2424e-17 0 1.98785e-16 0 0 0 -2.48481e-17 -1.59028e-15 1.98785e-16 -0.05417 1.74624 0.17202 -0.314862 13.245 1.374 0.10407 1.76136 -0.12397 -1.13564e-17 0 -7.76503e-19 0 0 0 -2.48481e-17 -1.59028e-15 1.98785e-16 3.36241 1.20089 -0.31121 -70.0397 -0.203377 -2.85721 4.983 0.000260727 0.000172215 0.00296805 -0.000112135 -0.00234161 3.48356 1.04107e-06 -6.27401e-06 2.72087e-15 -4.96962e-16 0.000125174 0 0 0 -3.5657e-15 9.93923e-17 -0 0.71526 0 0 -3.5657e-15 -5.96354e-16 -0 0 0 0 -3.5657e-15 9.93923e-17 -0 0 0 0 -2.48481e-17 -1.59028e-15 1.98785e-16 -3.1366 1.37404 -0.40465 70.0397 -0.203385 2.85727 -5.2419 0.000271698 0.000176292 -0.00292329 -0.000105152 0.00228599 -3.44417 -1.09964e-06 -6.1885e-06 2.43511e-15 0 -0.000125332 0 0 0 5.46658e-15 7.95139e-16 -7.95139e-16 -0.62253 0 0 -9.44227e-16 -3.97569e-16 7.95139e-16 0 0 0 5.46658e-15 7.95139e-16 -7.95139e-16 
-0.0284016 0.472283 -0.258048 -0.0455707 -4.51672 -0.578655 0 0 0 -6.21202e-18 0 9.93923e-17 1.36306 -1.79463 4.2992e-10 -64.86 -72.1678 -68.103 2.44811 -6.72613 -0.00024571 -105.359 65.2251 126.015 2.5622 -7.03959 5.3559e-05 -9.10881 -33.1519 -16.8269 0.15764 -0.43311 2.32255 -1.98785e-15 6.36111e-15 -0 0 0 0 -6.21202e-18 0 9.93923e-17 -1.30552 -1.79463 -1.11358e-08 71.3746 -71.7335 74.9634 -2.54251 -6.98556 -0.000321313 107.429 64.5076 -128.262 -2.56826 -7.05623 3.53778e-05 8.88931 -32.7732 16.5954 -0.16473 -0.45259 2.36315 -7.95139e-16 0 -0 0 0 0 -6.21202e-18 0 9.93923e-17 0.0282701 2.03559 4.03749e-09 -6.21202e-18 -7.95139e-16 -0 0.05672 2.04885 -0.04275 6.21202e-18 0 -0 0 0 0 6.21202e-18 0 -0 -0.05417 1.74624 0.17202 -0.131453 12.8369 0.591641 0.10407 1.76136 -0.12397 1.31035e-18 -3.18055e-15 2.71776e-18 0 0 0 6.21202e-18 0 -0 3.36241 1.20089 -0.31121 -70.0414 -0.0898241 0.0248677 4.983 0.000260727 0.000172215 0.00300381 -0.0023644 -0.0258253 3.48356 1.04107e-06 -6.27401e-06 5.92627e-15 1.19271e-15 0.000125309 0 0 0 2.69602e-15 -1.98785e-16 7.95139e-16 0.71526 8.88178e-16 1.11022e-16 -5.09386e-16 0 -0 0 0 0 2.69602e-15 -1.98785e-16 7.95139e-16 0 0 0 6.21202e-18 0 -0 -3.1366 1.37404 -0.40465 70.0414 -0.0898301 -0.0248146 -5.2419 0.000271698 0.000176292 -0.00290878 -0.000336369 0.0033547 -3.44417 -1.09964e-06 -6.1885e-06 -3.2551e-15 -3.97569e-16 -0.000125705 0 0 0 -3.32964e-15 0 -7.95139e-16 -0.62253 8.88178e-16 1.11022e-16 -3.32964e-15 3.97569e-16 -7.95139e-16 0 0 0 -3.32964e-15 0 -7.95139e-16 
-0.0290127 0.485687 -0.237704 0.0257542 -4.51688 0.327023 0 0 0 -9.31803e-18 7.95139e-16 -0 1.36306 -1.79463 4.2992e-10 -59.3767 -70.1571 -62.3695 2.44811 -6.72613 -0.00024571 -106.981 64.6744 127.796 2.5622 -7.03959 5.3559e-05 -9.88925 -35.1003 -18.0829 0.15764 -0.43311 2.32255 3.97569e-15 3.18055e-15 -0 0 0 0 -9.31803e-18 7.95139e-16 -0 -1.30552 -1.79463 -1.11358e-08 62.036 -71.3807 65.1721 -2.54251 -6.98556 -0.000321313 108.587 64.0742 -129.555 -2.56826 -7.05623 3.53778e-05 9.70931 -34.872 17.922 -0.16473 -0.45259 2.36315 -3.97569e-16 -3.18055e-15 -0 0 0 0 -9.31803e-18 7.95139e-16 -0 0.0282701 2.03559 4.03749e-09 -9.31803e-18 7.95139e-16 -0 0.05672 2.04885 -0.04275 -6.21202e-18 1.59028e-15 -0 0 0 0 -3.10601e-18 1.59028e-15 -0 -0.05417 1.74624 0.17202 0.0716634 12.3973 -0.333796 0.10407 1.76136 -0.12397 2.4023e-18 3.18055e-15 3.88251e-19 0 0 0 -3.10601e-18 1.59028e-15 -0 3.36241 1.20089 -0.31121 -70.0818 0.211507 2.87684 4.983 0.000260727 0.000172215 0.00299895 -0.0109869 -0.122366 3.48356 1.04107e-06 -6.27401e-06 -4.7522e-15 5.96354e-16 0.000126254 0 0 0 -4.76462e-15 0 -3.97569e-16 0.71526 0 -1.11022e-16 1.58407e-15 -1.98785e-16 -3.97569e-16 0 0 0 -4.76462e-15 0 -3.97569e-16 0 0 0 -3.10601e-18 1.59028e-15 -0 -3.1366 1.37404 -0.40465 70.0818 0.211506 -2.87679 -5.2419 0.000271698 0.000176292 -0.0028643 -0.00104349 0.0104418 -3.44417 -1.09964e-06 -6.1885e-06 4.29561e-15 1.98785e-16 -0.000126632 0 0 0 -2.05928e-15 1.98785e-16 1.98785e-16 -0.62253 8.88178e-16 0 1.13369e-15 0 -0 0 0 0 -2.05928e-15 1.98785e-16 1.98785e-16 
-0.0296629 0.499367 -0.215029 0.100397 -4.51584 1.27492 0 0 0 2.75869e-33 -7.95139e-16 1.98785e-16 1.36306 -1.79463 4.2992e-10 -54.4068 -67.7965 -57.1597 2.44811 -6.72613 -0.00024571 -108.511 64.1044 129.487 2.5622 -7.03959 5.3559e-05 -10.8317 -37.1754 -19.515 0.15764 -0.43311 2.32255 -4.17448e-15 0 -7.95139e-16 0 0 0 2.75869e-33 -7.95139e-16 1.98785e-16 -1.30552 -1.79463 -1.11358e-08 52.6143 -70.392 55.2079 -2.54251 -6.98556 -0.000321313 109.867 63.558 -130.988 -2.56826 -7.05623 3.53778e-05 10.719 -37.1275 19.4573 -0.16473 -0.45259 2.36315 9.54166e-15 -3.18055e-15 1.59028e-15 0 0 0 2.75869e-33 -7.95139e-16 1.98785e-16 0.0282701 2.03559 4.03749e-09 -1.2424e-17 -1.59028e-15 -1.98785e-16 0.05672 2.04885 -0.04275 -0 0 1.98785e-16 0 0 0 -3.72721e-17 7.95139e-16 -1.98785e-16 -0.05417 1.74624 0.17202 0.268555 11.9292 -1.29902 0.10407 1.76136 -0.12397 2.24215e-17 1.59028e-15 -3.10601e-18 0 0 0 -3.72721e-17 7.95139e-16 -1.98785e-16 3.36241 1.20089 -0.31121 -70.174 0.638238 5.72338 4.983 0.000260727 0.000172215 0.00289114 -0.0294526 -0.331332 3.48356 1.04107e-06 -6.27401e-06 5.91385e-15 -1.59028e-15 0.000128819 0 0 0 5.90142e-15 -3.97569e-16 -0 0.71526 0 0 2.73329e-15 -7.95139e-16 1.98785e-16 0 0 0 5.90142e-15 -3.97569e-16 -0 0 0 0 -3.72721e-17 7.95139e-16 -1.98785e-16 -3.1366 1.37404 -0.40465 70.1739 0.638243 -5.72333 -5.2419 0.000271698 0.000176292 -0.00278767 -0.00289681 0.0296642 -3.44417 -1.09964e-06 -6.1885e-06 8.42971e-15 4.96962e-17 -0.000127849 0 0 0 5.24993e-15 1.49089e-16 -1.98785e-16 -0.62253 -8.88178e-16 0 5.2476e-15 9.93923e-17 -0 0 0 0 5.24993e-15 1.49089e-16 -1.98785e-16 
-0.0302866 0.511336 -0.191543 0.170425 -4.51374 2.16452 0 0 0 -5.51738e-33 -7.95139e-16 -3.97569e-16 1.36306 -1.79463 4.2992e-10 -50.0401 -65.2661 -52.5574 2.44811 -6.72613 -0.00024571 -109.597 63.6669 130.703 2.5622 -7.03959 5.3559e-05 -11.8257 -39.1519 -20.9623 0.15764 -0.43311 2.32255 9.93923e-16 3.18055e-15 -0 0 0 0 -5.51738e-33 -7.95139e-16 -3.97569e-16 -1.30552 -1.79463 -1.11358e-08 44.344 -68.833 46.3296 -2.54251 -6.98556 -0.000321313 110.803 63.1543 -132.054 -2.56826 -7.05623 3.53778e-05 11.8039 -39.2924 21.0316 -0.16473 -0.45259 2.36315 2.38542e-15 0 -0 0 0 0 -5.51738e-33 -7.95139e-16 -3.97569e-16 0.0282701 2.03559 4.03749e-09 -5.51738e-33 -7.95139e-16 -3.97569e-16 0.05672 2.04885 -0.04275 -7.45443e-17 0 -3.97569e-16 0 0 0 -5.51738e-33 -7.95139e-16 -3.97569e-16 -0.05417 1.74624 0.17202 0.436747 11.4369 -2.20155 0.10407 1.76136 -0.12397 2.45569e-17 0 3.88251e-18 0 0 0 -5.51738e-33 -7.95139e-16 -3.97569e-16 3.36241 1.20089 -0.31121 -70.3191 1.12665 8.58953 4.983 0.000260727 0.000172215 0.00242311 -0.0612319 -0.692093 3.48356 1.04107e-06 -6.27401e-06 -4.24902e-15 7.95139e-16 0.000133814 0 0 0 5.31749e-15 7.95139e-16 -0 0.71526 0 0 -1.11816e-15 0 -0 0 0 0 5.31749e-15 7.95139e-16 -0 0 0 0 -5.51738e-33 -7.95139e-16 -3.97569e-16 -3.1366 1.37404 -0.40465 70.3191 1.12666 -8.58947 -5.2419 0.000271698 0.000176292 -0.00267392 -0.00656659 0.0671387 -3.44417 -1.09964e-06 -6.1885e-06 -1.75179e-15 -3.97569e-16 -0.000129091 0 0 0 -4.93234e-15 1.98785e-16 -1.19271e-15 -0.62253 8.88178e-16 0 -1.72694e-15 -1.98785e-16 -3.97569e-16 0 0 0 -4.93234e-15 1.98785e-16 -1.19271e-15 
-0.0309063 0.521478 -0.166718 0.237443 -4.51072 3.01638 0 0 0 0 7.95139e-16 -0 1.36306 -1.79463 4.2992e-10 -46.193 -62.4765 -48.4734 2.44811 -6.72613 -0.00024571 -110.181 63.4201 131.385 2.5622 -7.03959 5.3559e-05 -12.8661 -41.0621 -22.4352 0.15764 -0.43311 2.32255 -1.98785e-16 0 7.95139e-16 0 0 0 0 7.95139e-16 -0 -1.30552 -1.79463 -1.11358e-08 37.3522 -66.7881 38.6522 -2.54251 -6.98556 -0.000321313 111.37 62.9009 -132.729 -2.56826 -7.05623 3.53778e-05 12.9705 -41.4137 22.671 -0.16473 -0.45259 2.36315 -1.39149e-15 -3.18055e-15 2.38542e-15 0 0 0 0 7.95139e-16 -0 0.0282701 2.03559 4.03749e-09 -4.96962e-17 0 -0 0.05672 2.04885 -0.04275 -5.51738e-33 7.95139e-16 3.97569e-16 0 0 0 4.96962e-17 7.95139e-16 3.97569e-16 -0.05417 1.74624 0.17202 0.580726 10.9205 -3.06255 0.10407 1.76136 -0.12397 -3.57191e-17 1.59028e-15 -9.31803e-18 0 0 0 4.96962e-17 7.95139e-16 3.97569e-16 3.36241 1.20089 -0.31121 -70.5323 1.65708 11.4833 4.983 0.000260727 0.000172215 0.00109903 -0.107437 -1.21842 3.48356 1.04107e-06 -6.27401e-06 -1.73936e-15 -7.95139e-16 0.000144759 0 0 0 -1.83876e-15 -3.97569e-16 -1.59028e-15 0.71526 0 -2.22045e-16 -1.83876e-15 0 -0 0 0 0 -1.83876e-15 -3.97569e-16 -1.59028e-15 0 0 0 4.96962e-17 7.95139e-16 3.97569e-16 -3.1366 1.37404 -0.40465 70.5323 1.65709 -11.4833 -5.2419 0.000271698 0.000176292 -0.0024969 -0.0118887 0.123358 -3.44417 -1.09964e-06 -6.1885e-06 4.17448e-15 0 -0.000130619 0 0 0 9.93923e-16 3.97569e-16 7.95139e-16 -0.62253 0 0 9.44227e-16 7.95139e-16 7.95139e-16 0 0 0 9.93923e-16 3.97569e-16 7.95139e-16 
